<svg width="699" height="1252" viewBox="0 0 699 1252" version="1.1" xmlns="http://www.w3.org/2000/svg" xmlns:xlink="http://www.w3.org/1999/xlink">
<title>Stripes</title>
<desc>Created using Figma</desc>
<g id="Canvas" transform="translate(-1414 -1203)">
<g id="Stripes">
<mask id="mask0_alpha" mask-type="alpha">
<g id="Rectangle 4">
<use xlink:href="#path0_fill" transform="matrix(1 1.35424e-16 -5.55112e-17 1 1414.54 1203.45)" fill="#C4C4C4"/>
<mask id="mask1_outline_ins">
<use xlink:href="#path0_fill" fill="white" transform="matrix(1 1.35424e-16 -5.55112e-17 1 1414.54 1203.45)"/>
</mask>
<g mask="url(#mask1_outline_ins)">
<use xlink:href="#path1_stroke_2x" transform="matrix(1 1.35424e-16 -5.55112e-17 1 1414.54 1203.45)"/>
</g>
</g>
</mask>
<g id="Stripes" mask="url(#mask0_alpha)">
<g id="Line">
<use xlink:href="#path2_stroke" transform="matrix(0.219559 0.975599 0.952311 -0.305128 1822.82 676.87)"/>
</g>
<g id="Line">
<use xlink:href="#path2_stroke" transform="matrix(0.219559 0.975599 0.952311 -0.305128 1881.05 658.215)"/>
</g>
<g id="Line">
<use xlink:href="#path2_stroke" transform="matrix(0.219559 0.975599 0.952311 -0.305128 1764.6 695.524)"/>
</g>
<g id="Line">
<use xlink:href="#path2_stroke" transform="matrix(0.219559 0.975599 0.952311 -0.305128 1706.38 714.179)"/>
</g>
<g id="Line">
<use xlink:href="#path2_stroke" transform="matrix(0.219559 0.975599 0.952311 -0.305128 1648.16 732.833)"/>
</g>
<g id="Line">
<use xlink:href="#path2_stroke" transform="matrix(0.219559 0.975599 0.952311 -0.305128 1589.94 751.488)"/>
</g>
<g id="Line">
<use xlink:href="#path2_stroke" transform="matrix(0.219559 0.975599 0.952311 -0.305128 1531.72 770.142)"/>
</g>
<g id="Line">
<use xlink:href="#path2_stroke" transform="matrix(0.219559 0.975599 0.952311 -0.305128 1473.5 788.797)"/>
</g>
<g id="Line">
<use xlink:href="#path2_stroke" transform="matrix(0.219559 0.975599 0.952311 -0.305128 1415.28 807.451)"/>
</g>
<g id="Line">
<use xlink:href="#path2_stroke" transform="matrix(0.219559 0.975599 0.952311 -0.305128 1357.05 826.106)"/>
</g>
<g id="Line">
<use xlink:href="#path2_stroke" transform="matrix(0.219559 0.975599 0.952311 -0.305128 1298.83 844.76)"/>
</g>
<g id="Line">
<use xlink:href="#path2_stroke" transform="matrix(0.219559 0.975599 0.952311 -0.305128 1240.61 863.415)"/>
</g>
<g id="Line">
<use xlink:href="#path2_stroke" transform="matrix(0.219559 0.975599 0.952311 -0.305128 1182.39 882.07)"/>
</g>
<g id="Line">
<use xlink:href="#path2_stroke" transform="matrix(0.219559 0.975599 0.952311 -0.305128 1124 910)"/>
</g>
<g id="Line">
<use xlink:href="#path2_stroke" transform="matrix(0.219559 0.975599 0.952311 -0.305128 2068.51 628.702)"/>
</g>
<g id="Line">
<use xlink:href="#path2_stroke" transform="matrix(0.219559 0.975599 0.952311 -0.305128 2010.29 647.356)"/>
</g>
<g id="Line">
<use xlink:href="#path2_stroke" transform="matrix(0.219559 0.975599 0.952311 -0.305128 1952.07 666.011)"/>
</g>
</g>
</g>
</g>
<defs>
<path id="path0_fill" d="M 0 0L 697.937 0L 697.937 1251.03L 0 1251.03L 0 0Z"/>
<path id="path1_stroke_2x" d="M 0 0L 0 -1L -1 -1L -1 0L 0 0ZM 697.937 0L 698.937 0L 698.937 -1L 697.937 -1L 697.937 0ZM 697.937 1251.03L 697.937 1252.03L 698.937 1252.03L 698.937 1251.03L 697.937 1251.03ZM 0 1251.03L -1 1251.03L -1 1252.03L 0 1252.03L 0 1251.03ZM 0 1L 697.937 1L 697.937 -1L 0 -1L 0 1ZM 696.937 0L 696.937 1251.03L 698.937 1251.03L 698.937 0L 696.937 0ZM 697.937 1250.03L 0 1250.03L 0 1252.03L 697.937 1252.03L 697.937 1250.03ZM 1 1251.03L 1 0L -1 0L -1 1251.03L 1 1251.03Z"/>
<path id="path2_stroke" d="M 0 0L 2116.54 0L 2116.54 -1L 0 -1L 0 0Z"/>
</defs>
</svg>
